<?xml version="1.0" encoding="UTF-8"?>
<svg width="18px" height="18px" viewBox="0 0 18 18" version="1.1" xmlns="http://www.w3.org/2000/svg" xmlns:xlink="http://www.w3.org/1999/xlink">
    <!-- Generator: Sketch 49.3 (51167) - http://www.bohemiancoding.com/sketch -->
    <title>gnb-noti-active</title>
    <desc>Created with Sketch.</desc>
    <defs></defs>
    <g id="gnb-noti-active" stroke="none" stroke-width="1" fill="none" fill-rule="evenodd">
        <g id="Group-2" transform="translate(1.000000, 1.000000)">
            <rect id="Rectangle-6" x="0" y="0" width="17" height="17"></rect>
            <path d="M15.282491,15.1446585 L10.3953069,15.1446585 C10.266379,16.1671463 9.47589008,16.9465337 8.51353791,17 C7.55639662,16.9398148 6.77322394,16.1620455 6.64530686,15.1446585 L1.74458484,15.1446585 C1.33844765,15.1446585 1,15.0286997 1,14.5358746 C1,13.0863891 2.57039711,12.796492 2.57039711,12.796492 L2.57039711,6.96956023 C2.62264058,3.87453918 4.77011035,1.28017889 7.63357401,0.852731353 C7.63357401,0.852731353 7.63357401,0.852731353 7.63357401,0.852731353 C7.6894439,0.365835294 8.07567436,0 8.53384477,0 C8.99201517,0 9.37824563,0.365835294 9.43411552,0.852731353 C9.43411552,0.852731353 9.43411552,0.852731353 9.43411552,0.852731353 C12.2707611,1.31237228 14.3825779,3.89823043 14.4296029,6.96956023 L14.4296029,12.7675023 C14.4296029,12.7675023 16,13.2603274 16,14.5068849 C16,15.0286997 15.6615523,15.1446585 15.282491,15.1446585 Z" id="Path" fill="#4693FF"></path>
        </g>
    </g>
</svg>