<?xml version="1.0" encoding="UTF-8"?>
<svg width="20px" height="18px" viewBox="0 0 20 18" version="1.1" xmlns="http://www.w3.org/2000/svg" xmlns:xlink="http://www.w3.org/1999/xlink">
    <!-- Generator: Sketch 49.3 (51167) - http://www.bohemiancoding.com/sketch -->
    <title>gnb-home-active</title>
    <desc>Created with Sketch.</desc>
    <defs></defs>
    <g id="gnb-home-active" stroke="none" stroke-width="1" fill="none" fill-rule="evenodd">
        <g id="home-icon" transform="translate(0.835938, 0.000000)" fill="#4693FF" fill-rule="nonzero">
            <path d="M7.0360509,16.9863582 L7.0360509,12.4959138 C7.0360509,11.943629 7.4837662,11.4959138 8.0360509,11.4959138 L9.9919836,11.4959138 C10.5442683,11.4959138 10.9919836,11.943629 10.9919836,12.4959138 L10.9919836,16.9863582 C10.9919836,17.5386429 11.4396988,17.9863582 11.9919836,17.9863582 L14.9368994,17.9863582 C15.4891841,17.9863582 15.9368994,17.5386429 15.9368994,16.9863582 L15.9368994,10.3324323 C15.9368994,9.7801476 16.3846146,9.3324323 16.9368994,9.3324323 L17.4203741,9.3324323 C17.7559756,9.3324323 18.0280344,9.0603735 18.0280344,8.724772 C18.0280344,8.5619558 17.9626956,8.40595 17.8466663,8.2917294 L9.7155478,0.2873606 C9.3263331,-0.0957869 8.7017014,-0.0957869 8.3124867,0.2873606 L0.1813681,8.2917294 C-0.0577947,8.5271641 -0.0608169,8.9119015 0.1746178,9.1510643 C0.2888383,9.2670935 0.4448442,9.3324323 0.6076604,9.3324323 L1.0911351,9.3324323 C1.6434199,9.3324323 2.0911351,9.7801476 2.0911351,10.3324323 L2.0911351,16.9863582 C2.0911351,17.5386429 2.5388504,17.9863582 3.0911351,17.9863582 L6.0360509,17.9863582 C6.5883357,17.9863582 7.0360509,17.5386429 7.0360509,16.9863582 Z" id="Shape-Copy-6"></path>
        </g>
    </g>
</svg>