<?xml version="1.0" encoding="UTF-8"?>
<svg width="24px" height="24px" viewBox="0 0 24 24" version="1.1" xmlns="http://www.w3.org/2000/svg" xmlns:xlink="http://www.w3.org/1999/xlink">
    <!-- Generator: Sketch 49.3 (51167) - http://www.bohemiancoding.com/sketch -->
    <title>Rectangle 3</title>
    <desc>Created with Sketch.</desc>
    <defs></defs>
    <g id="Page-2" stroke="none" stroke-width="1" fill="none" fill-rule="evenodd">
        <g id="dashboard" transform="translate(-280.000000, -36.000000)">
            <g id="Group-10" transform="translate(280.000000, 36.000000)">
                <rect id="Rectangle-3" x="0" y="0" width="24" height="24"></rect>
                <path d="M12.004597,5 C10.0072255,5 8.02277358,5.84228165 6.63865283,7.47734917 C4.1529201,10.4112543 4.53878575,14.7865106 7.49996008,17.248499 C7.79624978,17.4942712 8.2381004,17.4567227 8.48615689,17.1631615 C8.73507468,16.8696003 8.69631586,16.4318186 8.40002616,16.1860465 C6.03143121,14.2164558 5.72308322,10.7167627 7.71011905,8.3691266 C9.6988775,6.02149051 13.2310985,5.7151287 15.5996935,7.68471943 C17.9691497,9.65431016 18.2774977,13.1531498 16.2896006,15.5016393 C15.9993401,15.8446963 15.6729046,16.1476446 15.3171847,16.4070707 L15.5083949,15.5810032 C15.5945256,15.2080781 15.3593888,14.8360064 14.9829975,14.7498155 C14.6066062,14.6653313 14.230215,14.8974494 14.1432229,15.2720813 L13.5764828,17.7170022 C13.4869068,18.1061414 13.7444377,18.4884537 14.1397777,18.5567237 L16.672021,18.9893851 C17.0527188,19.0559484 17.4153292,18.8024959 17.4816498,18.4244505 C17.5471092,18.0472585 17.2913009,17.6888408 16.9106031,17.6231309 L16.1810759,17.4985381 C16.6143134,17.1785222 17.0096535,16.809864 17.3610668,16.3925634 C19.8476609,13.4586583 19.4609339,9.0842553 16.4988983,6.62226689 C15.1897112,5.53335971 13.5945702,5 12.0080422,5 C12.0071809,5 12.0063196,5 12.004597,5 Z" id="Clip-2" fill="#334054"></path>
            </g>
        </g>
    </g>
</svg>