<?xml version="1.0" encoding="UTF-8"?>
<svg width="16px" height="19px" viewBox="0 0 16 19" version="1.1" xmlns="http://www.w3.org/2000/svg" xmlns:xlink="http://www.w3.org/1999/xlink">
    <!-- Generator: Sketch 49.3 (51167) - http://www.bohemiancoding.com/sketch -->
    <title>ic_calendar_primary</title>
    <desc>Created with Sketch.</desc>
    <defs>
        <filter x="-0.2%" y="-0.3%" width="100.3%" height="101.3%" filterUnits="objectBoundingBox" id="filter-1">
            <feOffset dx="0" dy="1" in="SourceAlpha" result="shadowOffsetOuter1"></feOffset>
            <feColorMatrix values="0 0 0 0 0   0 0 0 0 0   0 0 0 0 0  0 0 0 0.04 0" type="matrix" in="shadowOffsetOuter1" result="shadowMatrixOuter1"></feColorMatrix>
            <feMerge>
                <feMergeNode in="shadowMatrixOuter1"></feMergeNode>
                <feMergeNode in="SourceGraphic"></feMergeNode>
            </feMerge>
        </filter>
    </defs>
    <g id="Page-2" stroke="none" stroke-width="1" fill="none" fill-rule="evenodd">
        <g id="product-티켓-전체" transform="translate(-284.000000, -85.000000)" fill-rule="nonzero">
            <g id="Group-8" filter="url(#filter-1)">
                <g id="Group-3" transform="translate(0.000000, 76.000000)">
                    <g id="Group-11" transform="translate(280.000000, 6.000000)">
                        <g id="ic_calendar_primary">
                            <rect id="canvas" x="0" y="0" width="24" height="24"></rect>
                            <path d="M16,5 L16,4 C16,3.44771525 16.4477153,3 17,3 C17.5522847,3 18,3.44771525 18,4 L18,5.17070571 C19.1651924,5.58254212 20,6.69378117 20,8 L20,18 C20,19.6568542 18.6568542,21 17,21 L7,21 C5.34314575,21 4,19.6568542 4,18 L4,8 C4,6.69378117 4.83480763,5.58254212 6,5.17070571 L6,4 C6,3.44771525 6.44771525,3 7,3 C7.55228475,3 8,3.44771525 8,4 L8,5 L16,5 Z M6,10 L6,18 C6,18.5522847 6.44771525,19 7,19 L17,19 C17.5522847,19 18,18.5522847 18,18 L18,10 L6,10 Z M8,12 L10,12 L10,14 L8,14 L8,12 Z M11,12 L13,12 L13,14 L11,14 L11,12 Z M14,12 L16,12 L16,14 L14,14 L14,12 Z" id="shape" fill="#8392A1"></path>
                        </g>
                    </g>
                </g>
            </g>
        </g>
    </g>
</svg>