<?xml version="1.0" encoding="UTF-8"?>
<svg width="148px" height="46px" viewBox="0 0 148 46" version="1.1" xmlns="http://www.w3.org/2000/svg" xmlns:xlink="http://www.w3.org/1999/xlink">
    <!-- Generator: Sketch 49.3 (51167) - http://www.bohemiancoding.com/sketch -->
    <title>Group</title>
    <desc>Created with Sketch.</desc>
    <defs></defs>
    <g id="Page-2" stroke="none" stroke-width="1" fill="none" fill-rule="evenodd">
        <g id="login" transform="translate(-86.000000, -100.000000)">
            <g id="Group" transform="translate(86.000000, 100.000000)">
                <path d="M117.428177,20 L117.428177,7.42857143 C117.428177,6.9551845 117.076402,6.57142857 116.642466,6.57142857 C116.20853,6.57142857 115.856755,6.9551845 115.856755,7.42857143 L115.856755,20 L110.618681,20 L110.618681,6.57142857 C110.618681,2.94212879 113.315621,0 116.642466,0 C119.96931,0 122.666251,2.94212879 122.666251,6.57142857 L122.666251,20 L117.428177,20 Z M107.73774,14.2857143 L109.571066,14.2857143 L109.571066,20 L99.0949178,20 C96.7805911,20 94.9044586,17.9533017 94.9044586,15.4285714 L94.9044586,4.57142857 C94.9044586,2.04669829 96.7805911,0 99.0949178,0 L109.571066,0 L109.571066,5.71428571 L107.73774,5.71428571 L107.73774,14.2857143 Z M103.023473,14.2857143 L103.023473,5.71428571 L101.190147,5.71428571 C100.611566,5.71428571 100.142533,6.22596029 100.142533,6.85714286 L100.142533,13.1428571 C100.142533,13.7740397 100.611566,14.2857143 101.190147,14.2857143 L103.023473,14.2857143 Z M39.9046813,3.71428571 L39.9046813,2.85714286 C39.9046813,1.27918643 41.0772641,2.89865893e-16 42.5237183,0 C43.9701725,-2.89865893e-16 45.1427553,1.27918643 45.1427553,2.85714286 L45.1427553,20 L39.9046813,20 L39.9046813,16.2857143 L36.2963881,16.2857143 C34.6158877,18.5513905 32.0463309,20 29.1666295,20 C24.1040398,20 20,15.5228475 20,10 C20,4.4771525 24.1040398,0 29.1666295,0 C32.0463309,0 34.6158877,1.44860951 36.2963881,3.71428571 L39.9046813,3.71428571 Z M29.1666295,14.5714286 C31.4809563,14.5714286 33.3570888,12.5247303 33.3570888,10 C33.3570888,7.47526972 31.4809563,5.42857143 29.1666295,5.42857143 C26.8523028,5.42857143 24.9761703,7.47526972 24.9761703,10 C24.9761703,12.5247303 26.8523028,14.5714286 29.1666295,14.5714286 Z M38.2740495,8.85714286 C38.3131633,9.23219106 38.3332591,9.61353536 38.3332591,10 C38.3332591,10.3864646 38.3131633,10.7678089 38.2740495,11.1428571 L39.9046813,11.1428571 L39.9046813,8.85714286 L38.2740495,8.85714286 Z M59.3677166,1.33894043 C60.1260406,2.16620629 60.5950737,3.30906343 60.5950737,4.57142857 L60.5950737,20 L55.3569997,20 L55.3569997,6.85714286 C55.3569997,6.22596029 54.8879666,5.71428571 54.3093849,5.71428571 L48.5475035,5.71428571 C47.1010492,5.71428571 45.9284664,4.43509929 45.9284664,2.85714286 C45.9284664,1.27918643 47.1010492,2.89865893e-16 48.5475035,0 L56.4046145,0 C57.5617779,-2.31892715e-16 58.6093927,0.511674572 59.3677166,1.33894043 Z M64.2617255,0 C65.7081797,-2.89865893e-16 66.8807625,1.27918643 66.8807625,2.85714286 L66.8807625,20 L61.6426885,20 L61.6426885,2.85714286 C61.6426885,1.27918643 62.8152713,2.89865893e-16 64.2617255,0 Z M88.0949624,7.08333333 L88.0949624,2.85714286 C88.0949624,1.27918643 89.2675452,0 90.7139994,0 C92.1604536,0 93.3330364,1.27918643 93.3330364,2.85714286 L93.3330364,20 L88.0949624,20 L88.0949624,12.9166667 L86.1275136,12.9166667 C84.9832779,17.0167465 81.4894487,20 77.3569106,20 C72.2943209,20 68.1902811,15.5228475 68.1902811,10 C68.1902811,4.4771525 72.2943209,0 77.3569106,0 C81.4894487,0 84.9832779,2.98325347 86.1275136,7.08333333 L88.0949624,7.08333333 Z M77.3569106,14.5714286 C79.6712373,14.5714286 81.5473698,12.5247303 81.5473698,10 C81.5473698,7.47526972 79.6712373,5.42857143 77.3569106,5.42857143 C75.0425839,5.42857143 73.1664514,7.47526972 73.1664514,10 C73.1664514,12.5247303 75.0425839,14.5714286 77.3569106,14.5714286 Z M126.332903,19.9975295 C124.886449,19.9975295 123.713866,18.7183431 123.713866,17.1403867 C123.713866,15.5624302 124.886449,14.2832438 126.332903,14.2832438 C127.779357,14.2832438 128.95194,15.5624302 128.95194,17.1403867 C128.95194,18.7183431 127.779357,19.9975295 126.332903,19.9975295 Z" id="Combined-Shape" fill="#F7323F"></path>
                <text id="액티비티-호스트센터" font-family="SDGdGulim, Sandoll Gyeokdonggulim" font-size="16" font-weight="normal" fill="#354052">
                    <tspan x="0" y="43">액티비티 호스트센터</tspan>
                </text>
            </g>
        </g>
    </g>
</svg>